<svg class="icon" viewBox="0 0 1024 1024" version="1.1" xmlns="http://www.w3.org/2000/svg"
     width="128" height="128">
    <path d="M814.08 873.472H209.92c-1.536 0-2.56-1.024-2.56-2.56V322.048c0-1.536 1.024-2.56 2.56-2.56h604.16c1.536 0 2.56 1.024 2.56 2.56v548.864c0 1.536-1.024 2.56-2.56 2.56z"
          fill="#C5FCDF"/>
    <path d="M300.032 348.16h245.76c7.68 0 14.848-3.072 19.968-8.192 5.632-5.632 8.192-12.8 8.192-19.968 0-7.68-3.072-14.848-8.192-19.968-5.632-5.632-12.8-8.192-19.968-8.192h-245.76c-7.68 0-14.848 3.072-19.968 8.192-5.632 5.12-8.704 12.288-8.704 19.968s3.072 14.848 8.192 19.968c5.12 5.632 12.8 8.192 20.48 8.192z m423.424 336.384H300.032c-15.872 0-28.672 12.8-28.672 28.672 0 15.872 12.8 28.672 28.672 28.672h423.936c15.872 0 28.672-12.8 28.672-28.672-0.512-15.872-13.312-28.672-29.184-28.672zM300.032 491.008c-7.68 0-14.848 3.072-19.968 8.192-5.632 5.632-8.192 12.8-8.192 19.968 0 7.68 3.072 14.848 8.192 19.968 5.632 5.12 12.8 8.192 19.968 8.192h423.936c7.68 0 14.848-3.072 19.968-8.192 5.632-5.632 8.192-12.8 8.192-19.968s-3.072-14.848-8.192-19.968c-5.632-5.632-12.8-8.192-19.968-8.192H300.032zM102.4 398.848c15.872 0 28.16-12.8 28.16-28.16v-19.456c0-15.36-12.8-28.16-28.16-28.16s-28.16 12.288-28.16 28.16v19.456c0 15.872 12.288 28.16 28.16 28.16z"
          fill="#4D4D4D"/>
    <path d="M897.024 285.184c0.512-6.656-2.048-13.824-7.168-18.432l-203.264-198.144c-4.608-4.608-10.752-6.656-17.408-6.656-0.512 0-1.024-0.512-1.024-0.512H211.456c-47.104 0-84.992 37.888-84.992 83.968V286.72c0 13.824 11.264 24.576 25.088 24.576s25.088-11.264 25.088-24.576V145.408c0-18.944 15.872-34.816 34.816-34.816h432.64v133.632c0 35.328 29.184 64.512 65.024 64.512h138.24v569.344c0 18.944-15.872 34.816-34.816 34.816H211.456c-19.456 0-34.816-15.36-34.816-34.816V490.496c0-13.824-11.264-24.576-25.088-24.576s-25.088 10.752-25.088 24.576v388.096c0 46.592 38.4 83.968 84.992 83.968h600.576c47.104 0 84.992-37.888 84.992-83.968V286.208c0.512-0.512 0.512-0.512 0-1.024z m-187.904-25.6c-8.192 0-14.848-6.656-14.848-14.848V145.408l117.248 114.176h-102.4z"
          fill="#4D4D4D"/>
    <path d="M906.752 999.424c-5.12 0-11.264-1.536-16.896-4.096l-78.848-39.424-79.36 39.424c-5.12 2.56-10.752 4.096-16.384 4.096-7.68 0-14.848-2.56-20.992-7.168-11.264-8.192-16.896-22.528-14.336-35.84l16.384-83.968-61.952-58.368c-9.728-9.728-13.312-24.064-9.728-36.864v-0.512c4.096-13.312 15.36-22.528 29.184-24.576l86.528-15.872 38.912-78.848c6.144-12.8 18.432-20.48 32.256-20.48 13.824 0 27.136 8.192 32.256 20.48l38.4 78.336 86.528 14.848c13.824 2.048 25.088 11.776 28.672 25.088 4.096 12.8 0.512 27.648-9.216 36.864l-61.952 58.368 15.872 84.48c2.56 13.312-3.072 27.136-13.824 35.328-6.144 6.144-13.824 8.704-21.504 8.704z m-95.744-72.192l83.968 41.984c2.56 1.024 5.12 2.048 7.168 2.048 3.072 0 5.632-1.024 7.68-2.56l0.512-0.512c4.608-3.584 7.168-9.216 6.144-14.848l-16.896-90.624 66.56-62.464c4.096-4.096 5.632-10.24 3.584-15.872v-0.512c-1.536-5.12-6.144-9.216-11.264-9.728h-0.512l-92.16-16.384-41.472-84.48c-2.048-4.608-7.68-8.192-12.8-8.192-5.632 0-10.752 3.584-13.312 8.704l-41.472 83.968-92.672 16.896c-5.632 0.512-9.728 4.608-12.288 10.24-1.536 5.632 0 11.264 4.096 15.872l66.56 61.952-17.408 90.624c-1.024 5.12 1.536 11.264 6.144 14.848 2.56 1.536 5.632 2.56 8.704 2.56 2.56 0 4.608-0.512 6.656-1.536h0.512l83.968-41.984z m-59.904-175.104l53.248-100.352h16.896l53.76 100.352 98.816 17.408 7.168 24.576-69.12 73.216 13.312 103.936-26.624 15.872-87.04-46.08-97.792 45.568-24.064-25.6 20.48-97.28-70.656-73.216 7.68-24.064 103.936-14.336z"
          fill="#FFBA0D"/>
</svg>
