<svg class="icon" viewBox="0 0 1024 1024" version="1.1" xmlns="http://www.w3.org/2000/svg"
     width="24" height="24">
    <path d="M512 2.27555555C230.51377778 2.27555555 2.27555555 230.51377778 2.27555555 512s228.23822222 509.72444445 509.72444445 509.72444445 509.72444445-228.23822222 509.72444445-509.72444445S793.48622222 2.27555555 512 2.27555555z m239.50222222 696.77511112c-13.08444445 1.59288889-51.08622222-59.96088889-51.08622222-59.96088889 0 35.61244445-18.432 82.14755555-58.14044445 115.82577777 19.22844445 5.91644445 62.464 21.84533333 52.224 39.13955556-8.30577778 13.99466667-142.90488889 8.98844445-181.81688888 4.55111111-38.912 4.32355555-173.51111111 9.44355555-181.81688889-4.55111111-10.35377778-17.29422222 32.88177778-33.22311111 52.11022222-39.13955556-39.82222222-33.56444445-58.14044445-80.09955555-58.14044445-115.82577777 0 0-38.00177778 61.55377778-51.08622222 59.96088889-6.144-0.79644445-14.10844445-33.67822222 10.69511112-113.43644445 11.71911111-37.54666667 25.03111111-68.83555555 45.73866666-120.37688889-3.52711111-133.00622222 51.54133333-244.62222222 182.49955556-244.62222222 129.59288889 0 185.79911111 109.34044445 182.49955555 244.62222222 20.59377778 51.42755555 34.01955555 82.83022222 45.73866667 120.37688889 24.68977778 79.75822222 16.61155555 112.75377778 10.58133333 113.43644445z"
          fill="#1296db"/>
</svg>
