<svg t="1644673656544" class="icon" viewBox="0 0 1024 1024" version="1.1"
    xmlns="http://www.w3.org/2000/svg" p-id="3535" width="32" height="32">
    <path d="M384 210.8672c50.688 0 96 23.6288 125.3888 60.7232l2.56 3.328 2.2272-2.8928a159.744 159.744 0 0 1 119.9616-61.056L640 210.8672h179.2a83.2 83.2 0 0 1 83.2 83.2v435.2a83.2 83.2 0 0 1-83.2 83.2l-226.9952 0.0256-5.0944 3.7888a130.4576 130.4576 0 0 1-68.3008 23.5008L512 839.936a130.5344 130.5344 0 0 1-75.1104-23.68l-5.12-3.7888L204.8 812.4672a83.2 83.2 0 0 1-83.072-78.4896l-0.128-4.7104v-435.2A83.2 83.2 0 0 1 204.8 210.8672z m0 64H204.8a19.2 19.2 0 0 0-19.2 19.2v435.2c0 10.5984 8.6016 19.2 19.2 19.2l238.7968 0.0256c8.2432 0 16.1536 3.2 22.1184 8.8832a66.6112 66.6112 0 0 0 46.2848 18.5856c17.5104 0 33.8944-6.7072 46.2848-18.5856a32 32 0 0 1 22.1184-8.8832L819.2 748.4672a19.2 19.2 0 0 0 19.2-19.2v-435.2a19.2 19.2 0 0 0-19.2-19.2h-179.2a96 96 0 0 0-96 96.9216v109.824a32 32 0 0 1-63.8464 3.2512l-0.1536-3.2512v-108.9792l0.0256-0.64v-0.4352l-0.1024-4.864A96 96 0 0 0 384 274.8416z" p-id="3536"></path>
</svg>