<svg t="1642425918345" class="icon" viewBox="0 0 1024 1024" version="1.1"
    xmlns="http://www.w3.org/2000/svg" p-id="3775" width="32" height="32">
    <path d="M337.190034 176.054857C337.190034 78.774857 415.452891 0 512.001463 0s174.811429 78.848 174.811428 176.128A175.542857 175.542857 0 0 1 512.001463 352.256a175.542857 175.542857 0 0 1-174.811429-176.274286z m393.728 627.126857c0.073143-81.481143 65.682286-147.602286 146.651429-147.602285A147.017143 147.017143 0 0 1 1024.001463 803.328 147.017143 147.017143 0 0 1 877.423177 950.857143a147.017143 147.017143 0 0 1-146.505143-147.675429zM512.001463 950.857143a147.017143 147.017143 0 0 1-146.432-147.675429 147.017143 147.017143 0 0 1 146.578286-147.602285 147.017143 147.017143 0 0 1 146.432 147.748571A147.017143 147.017143 0 0 1 511.92832 950.857143zM0.001463 803.181714a147.017143 147.017143 0 0 1 146.578286-147.602285c80.969143 0 146.505143 66.194286 146.505142 147.748571A147.163429 147.163429 0 0 1 146.433463 950.857143 147.017143 147.017143 0 0 1 0.001463 803.181714z m477.842286-475.355428h68.315428v366.884571h-68.315428V327.826286zM112.348891 690.102857V545.718857c0-38.034286 30.573714-68.754286 68.315429-68.754286h662.674286c37.741714 0 68.315429 30.72 68.315428 68.754286v144.384h-68.315428V545.718857H180.66432v144.384h-68.242286z" p-id="3776" fill="#515151"></path>
</svg>