<svg t="1640269615560" class="icon" viewBox="0 0 1048 1024" version="1.1"
    xmlns="http://www.w3.org/2000/svg" p-id="5097" width="32" height="32">
    <path d="M1009.37559 308.860541l-279.669985-271.075961a136.280853 136.280853 0 0 0-186.679716-1.544011L8.27357 534.460996a25.898606 25.898606 0 0 0-8.215305 20.043015v339.420313a129.900882 129.900882 0 0 0 129.75522 129.959147h351.189758a26.044267 26.044267 0 0 0 18.586401-7.807454l512.11653-523.390725a129.667824 129.667824 0 0 0-2.330584-183.824751zM279.932176 874.318293a116.529161 116.529161 0 1 1 116.529161-116.529161 116.529161 116.529161 0 0 1-116.529161 116.529161z" p-id="5098" fill="#515151"></path>
</svg>