<svg t="1638022013463" class="icon" viewBox="0 0 1024 1024" version="1.1"
    xmlns="http://www.w3.org/2000/svg" p-id="1224" width="32" height="32">
    <path d="M517.546667 704c-130.773333 0-248.106667-65.493333-306.133334-170.666667-7.04-13.013333-7.04-29.653333 0-42.666666 58.026667-105.173333 175.36-170.666667 306.133334-170.666667s248.106667 65.493333 306.133333 170.666667c7.04 13.013333 7.04 29.653333 0 42.666666-58.026667 105.173333-175.36 170.666667-306.133333 170.666667z m0-341.333333c-115.413333 0-218.24 56.96-268.8 148.48 50.56 93.226667 153.386667 150.186667 268.8 150.186666s218.24-56.96 268.8-148.48c-50.56-93.226667-153.6-150.186667-268.8-150.186666z" p-id="1225"></path>
    <path d="M512 640c-70.613333 0-128-57.386667-128-128s57.386667-128 128-128 128 57.386667 128 128-57.386667 128-128 128z m0-213.333333c-47.146667 0-85.333333 38.186667-85.333333 85.333333s38.186667 85.333333 85.333333 85.333333 85.333333-38.186667 85.333333-85.333333-38.186667-85.333333-85.333333-85.333333z" p-id="1226"></path>
</svg>