<svg t="1644673993697" class="icon" viewBox="0 0 1024 1024" version="1.1"
    xmlns="http://www.w3.org/2000/svg" p-id="4544" width="32" height="32">
    <path d="M781.189754 0.79188H242.810246c-132.837893 0-241.523441 108.685549-241.523441 241.523441v538.379507c0 132.837893 108.685549 241.523441 241.523441 241.523442h538.379508c132.837893 0 241.523441-108.685549 241.523441-241.523442V242.315321c0-132.837893-108.685549-241.523441-241.523441-241.523441z m-34.644756 321.60232c0 26.132044-21.380764 47.512808-47.512809 47.512808h-139.568873V700.81392c0 26.132044-21.380764 47.512808-47.512809 47.512808s-47.512808-21.380764-47.512808-47.512808V369.907008h-139.568873c-26.132044 0-47.512808-21.380764-47.512809-47.512808s21.380764-47.512808 47.512809-47.512808h374.064378c26.231029 0 47.611793 21.380764 47.611794 47.512808z" p-id="4545"></path>
</svg>